<?xml version="1.0" encoding="utf-8"?>
<!-- Generator: Adobe Illustrator 16.0.0, SVG Export Plug-In . SVG Version: 6.00 Build 0)  -->
<!DOCTYPE svg PUBLIC "-//W3C//DTD SVG 1.1//EN" "http://www.w3.org/Graphics/SVG/1.1/DTD/svg11.dtd">
<svg version="1.1" id="Layer_1" xmlns="http://www.w3.org/2000/svg" xmlns:xlink="http://www.w3.org/1999/xlink" x="0px" y="0px"
	 width="1038px" height="572px" viewBox="0 0 1038 572" enable-background="new 0 0 1038 572" xml:space="preserve">
<g>
	<g>
		<path fill="#01123A" d="M221.971,222.772c7.222,0.045,14.444,0.045,21.666,0.021c3.482,6.063,7.202,11.988,10.749,18.016
			c3.516,5.774,6.917,11.621,10.44,17.396c2.38,4.027,4.93,7.97,7.146,12.093c-4.504,5.936-8.567,12.193-12.842,18.293
			c-4.971-7.924-10.036-15.795-14.893-23.796c0.151,18.77-0.003,37.545,0.079,56.314c17.178-24.983,34.611-49.792,51.923-74.684
			c5.517-7.853,10.914-15.791,16.434-23.645c8.183,0.048,16.366,0.006,24.548,0.034c0.01,12.495,0.047,24.994-0.056,37.488
			c-3.605,3.813-6.892,7.905-10.419,11.782c-4.11,4.789-8.313,9.508-12.43,14.279c0.031-8.869,0.003-17.741-0.027-26.613
			c-11.36,15.607-22.647,31.262-34.13,46.773c-6.604,9.16-13.377,18.2-20.006,27.34c-3.657,5.153-7.517,10.162-11.132,15.347
			c-9.02,0.007-18.043-0.007-27.063-0.014C221.936,307.056,221.896,264.914,221.971,222.772z"/>
		<path fill="#47515A" d="M378.579,222.808c10.039-0.038,20.078,0.027,30.116,0.007c-2.189,2.871-4.8,5.424-7.099,8.217
			c-14.862,16.78-29.731,33.543-44.635,50.276c8.169,10.333,16.441,20.588,24.661,30.88c9.788,12.4,19.82,24.604,29.567,37.026
			c-10.066,0.018-20.136-0.007-30.202-0.024c-11.847-15.02-23.717-30.029-35.592-45.029c-1.339-1.722-2.792-3.355-4.007-5.171
			c-1.458,1.465-2.697,3.133-4.154,4.598c-0.003,15.213,0,30.429,0.014,45.641c-7.648-0.023-15.298,0-22.946-0.03
			c0.038-17.7,0-35.403,0.014-53.104C335.711,271.64,357.109,247.197,378.579,222.808z"/>
	</g>
	<g>
		<g>
			<g>
				<polygon fill="#47515A" points="438.942,350.069 448.959,350.069 448.959,309.157 438.942,300.564 				"/>
				<polygon fill="#47515A" points="492.703,332.141 451.852,300.756 451.852,352.318 461.868,340.568 461.868,320.165 
					502.72,351.548 502.72,300.078 492.703,310.863 				"/>
				<path fill="#47515A" d="M557.095,325.446c-1.521-1.265-3.313-2.271-5.328-2.997c-2.02-0.726-4.209-1.094-6.508-1.094h-22.873
					c-0.962,0-1.868-0.141-2.694-0.417c-0.817-0.274-1.541-0.66-2.149-1.149c-0.605-0.486-1.083-1.049-1.423-1.673
					c-0.33-0.607-0.492-1.243-0.492-1.947c0-0.706,0.164-1.357,0.499-1.99c0.334-0.634,0.805-1.187,1.398-1.646
					c0.614-0.474,1.342-0.855,2.167-1.132c0.825-0.275,1.731-0.416,2.694-0.416h26.605l10.338-8.878h-36.943
					c-2.301,0-4.49,0.366-6.506,1.091c-2.016,0.724-3.808,1.729-5.328,2.99c-1.531,1.269-2.75,2.784-3.622,4.499
					c-0.876,1.727-1.319,3.583-1.319,5.517c0,1.937,0.444,3.783,1.322,5.489c0.872,1.693,2.088,3.194,3.618,4.461
					c1.521,1.261,3.314,2.268,5.329,2.99c2.017,0.724,4.205,1.091,6.506,1.091h22.873c0.959,0,1.865,0.14,2.689,0.418
					c0.82,0.276,1.543,0.665,2.152,1.154c0.607,0.492,1.072,1.05,1.418,1.703c0.334,0.641,0.496,1.295,0.496,2.006v0.395
					c0,0.704-0.16,1.347-0.49,1.96c-0.342,0.63-0.82,1.196-1.424,1.684c-0.609,0.49-1.33,0.878-2.15,1.155
					c-0.824,0.276-1.729,0.417-2.691,0.417h-27.705l-10.239,8.879h37.944c2.305,0,4.498-0.381,6.52-1.132
					c2.008-0.744,3.795-1.762,5.316-3.025c1.531-1.272,2.748-2.776,3.615-4.472c0.877-1.709,1.324-3.56,1.324-5.501v-0.391
					c0-1.938-0.445-3.799-1.32-5.528C559.845,328.236,558.626,326.718,557.095,325.446z"/>
				<polygon fill="#47515A" points="564.925,350.069 574.942,350.069 574.942,309.157 564.925,300.564 				"/>
				<path fill="#47515A" d="M593.308,315.303c1.705-1.362,3.713-2.457,5.973-3.254c2.252-0.794,4.711-1.195,7.313-1.195h23.094
					l10.436-8.879h-33.529c-3.789,0-7.459,0.584-10.9,1.736c-3.453,1.155-6.568,2.87-9.262,5.094
					c-2.748,2.271-4.887,4.896-6.363,7.806c-1.482,2.919-2.234,6.041-2.234,9.28c0,3.241,0.752,6.354,2.234,9.252
					c1.479,2.888,3.615,5.502,6.363,7.771c2.689,2.222,5.803,3.946,9.256,5.123c3.439,1.176,7.111,1.771,10.906,1.771h31.611
					v-33.021h-8.051l-11.393,8.943h9.424v15.199h-21.592c-2.604,0-5.066-0.402-7.313-1.194c-2.26-0.798-4.268-1.892-5.973-3.254
					c-1.693-1.352-3.043-2.958-4.01-4.773c-0.961-1.796-1.447-3.742-1.447-5.784c0-2.044,0.488-4.002,1.449-5.821
					C590.267,318.269,591.616,316.653,593.308,315.303z"/>
				<polygon fill="#47515A" points="690.06,323.182 651.187,323.182 651.187,309.157 641.167,300.564 641.167,350.069 
					651.187,350.069 651.187,332.125 690.06,332.125 690.06,341.72 700.075,351.979 700.075,302.106 690.06,302.106 				"/>
				<polygon fill="#47515A" points="709.313,310.984 727.304,310.984 727.304,350.069 737.317,350.069 737.317,310.984 
					754.081,310.984 761.366,302.106 701.733,302.106 				"/>
				<path fill="#47515A" d="M814.243,329.956c-0.871-1.72-2.09-3.237-3.619-4.51c-1.521-1.264-3.314-2.271-5.328-2.997
					c-2.021-0.726-4.211-1.094-6.51-1.094h-22.873c-0.961,0-1.865-0.141-2.691-0.417c-0.82-0.274-1.543-0.66-2.15-1.149
					c-0.605-0.486-1.084-1.049-1.422-1.673c-0.332-0.607-0.492-1.243-0.492-1.947c0-0.706,0.162-1.357,0.498-1.99
					c0.334-0.634,0.805-1.187,1.396-1.646c0.615-0.474,1.344-0.855,2.17-1.132c0.824-0.275,1.73-0.416,2.691-0.416h26.607
					l10.338-8.878h-36.945c-2.299,0-4.488,0.366-6.506,1.091c-2.016,0.724-3.807,1.729-5.326,2.99
					c-1.533,1.269-2.752,2.782-3.621,4.499c-0.875,1.727-1.322,3.582-1.322,5.517c0,1.937,0.447,3.784,1.324,5.489
					c0.871,1.693,2.09,3.195,3.619,4.461c1.52,1.261,3.313,2.268,5.324,2.989c2.02,0.725,4.207,1.092,6.508,1.092h22.873
					c0.961,0,1.865,0.14,2.691,0.418c0.82,0.276,1.541,0.665,2.15,1.154c0.609,0.492,1.072,1.05,1.418,1.702
					c0.336,0.642,0.498,1.298,0.498,2.007v0.395c0,0.704-0.16,1.346-0.49,1.96c-0.344,0.63-0.82,1.196-1.426,1.684
					c-0.609,0.49-1.33,0.879-2.15,1.155c-0.822,0.276-1.729,0.417-2.691,0.417h-27.703l-10.24,8.879h37.943
					c2.305,0,4.5-0.381,6.521-1.132c2.006-0.744,3.795-1.762,5.316-3.025c1.529-1.271,2.746-2.776,3.615-4.472
					c0.879-1.709,1.322-3.56,1.322-5.501v-0.391C815.562,333.546,815.118,331.685,814.243,329.956z"/>
			</g>
		</g>
		<g>
			<g>
				<polygon fill="#01123A" points="438.432,287.21 450.592,287.21 450.592,260.508 491.983,260.508 479.195,248.437 
					450.592,248.437 450.592,233.984 498.968,233.984 509.725,221.912 438.432,221.912 				"/>
				<path fill="#01123A" d="M524.249,266.628h24.002l20.07,20.582h16.941l-20.285-20.822c1.646-0.293,3.248-0.852,4.787-1.673
					c2.348-1.253,4.414-3.021,6.115-5.226c1.658-2.037,2.916-4.421,3.742-7.085c0.813-2.622,1.225-5.375,1.225-8.178
					c0-2.806-0.412-5.545-1.225-8.14c-0.826-2.625-2.078-5.016-3.719-7.095c-1.73-2.239-3.801-3.995-6.156-5.219
					c-2.377-1.236-4.904-1.862-7.512-1.862h-50.143l-0.091,43.159l0.084,1.558l0.004,22.902l12.159-13.113V266.628z
					 M524.168,249.515l0.073-15.531h37.928c0.77,0,1.496,0.225,2.225,0.69c0.789,0.505,1.502,1.225,2.119,2.141
					c0.652,0.968,1.184,2.104,1.58,3.377c0.395,1.269,0.596,2.641,0.596,4.079c0,1.438-0.201,2.81-0.596,4.078
					c-0.396,1.274-0.928,2.411-1.58,3.379c-0.617,0.915-1.33,1.636-2.121,2.142c-0.725,0.463-1.451,0.688-2.223,0.688h-37.92v-3.609
					L524.168,249.515z"/>
				<polygon fill="#01123A" points="668.616,287.121 629.419,220.333 585.942,287.121 600.39,287.121 628.841,243.369 
					654.544,287.121 				"/>
				<path fill="#01123A" d="M715.706,254.036c0,2.9-0.58,5.644-1.723,8.151c-1.156,2.536-2.746,4.8-4.727,6.729
					c-1.979,1.928-4.322,3.465-6.965,4.566c-2.633,1.099-5.477,1.657-8.449,1.657c-2.975,0-5.816-0.559-8.449-1.657
					c-2.643-1.102-4.986-2.639-6.967-4.566c-1.977-1.927-3.551-4.186-4.676-6.716c-1.117-2.511-1.684-5.258-1.684-8.164v-22.055
					l-12.16-12.299v34.303c0,4.45,0.861,8.743,2.563,12.759c1.697,4.017,4.188,7.648,7.396,10.795
					c3.209,3.148,6.918,5.575,11.025,7.211c4.096,1.633,8.453,2.461,12.951,2.461c4.496,0,8.854-0.828,12.951-2.461
					c4.105-1.636,7.814-4.063,11.02-7.205c3.24-3.148,5.752-6.781,7.465-10.796c1.717-4.021,2.588-8.316,2.588-12.764v-33.718
					l-12.16,9.555V254.036z"/>
				<path fill="#01123A" d="M805.638,231.286c-3.268-3.019-7.047-5.362-11.234-6.965c-4.184-1.599-8.639-2.409-13.24-2.409h-49.197
					l0.092,50.426l-0.1,14.695h49.205c4.605,0,9.061-0.811,13.24-2.409c4.188-1.601,7.967-3.943,11.234-6.965
					c3.33-3.082,5.928-6.637,7.721-10.564c1.803-3.943,2.715-8.204,2.715-12.666c0-4.402-0.912-8.633-2.715-12.578
					C811.565,237.924,808.968,234.37,805.638,231.286z M781.163,274.961h-37.035v-40.978h37.035c3.158,0,6.145,0.545,8.877,1.62
					c2.736,1.079,5.174,2.577,7.242,4.452c2.057,1.864,3.697,4.061,4.875,6.526c1.166,2.438,1.756,5.078,1.756,7.846
					c0,2.771-0.592,5.427-1.758,7.896c-1.18,2.496-2.818,4.705-4.873,6.565c-2.066,1.874-4.504,3.372-7.242,4.451
					C787.308,274.416,784.321,274.961,781.163,274.961z"/>
			</g>
		</g>
	</g>
	<rect x="424" y="210" fill="#01123A" width="2" height="152"/>
</g>
</svg>
